<svg id="Layer_1" data-name="Layer 1" xmlns="http://www.w3.org/2000/svg" viewBox="0 0 576 576"><defs><style>.cls-1{fill:#0086f1}</style></defs><path class="cls-1" d="M101.6 87.77c8.6-5.37 19.13-5.54 28.95-5.16 3.68-.01 7.34 2.25 8.6 5.76.71 4.51.64 9.14.15 13.67-.32 3.11-3.4 5.37-6.41 5.43-5.43.58-11.97-1.14-16.22 3.28-3.32 2.42-4.5 6.51-4.37 10.46-.09 31.89.01 63.78-.05 95.67-.83 14.97-2.94 29.9-6.84 44.39-3.24 10.5-8.15 20.79-16.07 28.59 4.14 3.53 8.07 7.49 10.43 12.46 8.41 16.45 11.5 35.11 12.46 53.39-.11 32.99-.36 65.99-.52 98.98-.33 5.21 2.32 10.45 6.66 13.32 5.09 3.05 11.13 1.65 16.72 1.91 2.78-.19 4.54 2.69 4.45 5.18.03 5.41.32 10.85-.24 16.23-.41 3.53-4.2 5.72-7.55 5.42-10.4-.17-21.59-1.07-30.16-7.63-10.47-7.08-16.57-19.59-16.62-32.12-.59-37.52-.88-75.06-1.51-112.58-1.2-13.08-6.17-26.11-15.09-35.9-2.77-3.06-6.68-4.78-10.72-5.34-.03-9.64 0-19.27-.01-28.91 4.43-.65 8.66-2.63 11.5-6.18 9.05-10.25 14.29-23.95 14.67-37.6.07-37.18-.07-74.36.06-111.55-.25-12.55 7.01-24.81 17.73-31.17zM432.12 99.75c-.23-5.91-1.22-14.23 5.72-16.7 10-.84 20.77-1.14 29.97 3.54 12.5 5.88 20.5 19.78 20.03 33.48.03 32.66 0 65.34.01 98 .05 8.32-.5 16.79 1.66 24.92 2.74 10.21 7.63 20.08 15.35 27.44 2.47 2.4 5.91 3.18 9.16 3.9v28.46c-9.38 1.65-14.95 10.14-19.1 17.9-3.95 8.41-6.89 17.55-6.84 26.93-.42 35.32-.9 70.63-1.31 105.95.03 7.17-.86 14.51-4.19 20.96-3.73 8.01-10.61 14.27-18.46 18.14-8.23 3.78-17.53 4.03-26.42 3.74-3.19-.1-5.61-3.28-5.52-6.36-.15-5.62-.4-11.29.16-16.89 1.76-5.09 8.23-2.85 12.27-3.3 7.96 1.06 15.47-6.23 15.3-14.09-.06-33.36-.4-66.72-.49-100.06.99-18.87 4.19-38.18 13.32-54.95 2.25-4.42 5.85-7.9 9.55-11.1-8.33-7.9-13.2-18.69-16.38-29.55-3.62-13.75-5.57-27.9-6.48-42.06-.14-32.3.03-64.6-.08-96.89.06-3.92-1.05-8.01-4.29-10.46-4.97-4.87-12.41-2.01-18.44-3.61-3.11-1-4.73-4.23-4.52-7.38z"/><g><path class="cls-1" d="M163.87 171.78c23.15-35.28 62.12-60.21 104.25-64.72 37.07-5.09 75.73 5.71 105.5 28.19 29.27 22.22 50.15 55.52 56.28 91.86 3.37 21.51 2.96 43.86-3.43 64.79-10.66 39.77-39.39 73.96-76.33 91.98 0 10.33-.01 20.68.02 31.03-.06 2.47-.03 5.33-1.89 7.24-1.57 1.7-4.11 1.58-6.19 2.08-35.83 5.68-71.56 11.92-107.42 17.38-2.08-1.62-4.69-3.39-4.53-6.36-.18-13.52-.03-27.04-.06-40.56-16.96-20.76-27.46-47.24-26.69-74.26.48-29.2 14.19-57.4 35.57-77.06 22.27-20.75 53.49-32.14 83.92-28.85 8.71.42 16.97 3.23 25.38 5.25 3.32 14.7 5.77 29.88 4.06 44.97-.85 10.5-3.85 20.76-8.11 30.38-6.01 14.2-16.76 25.9-29.22 34.78-14.77 9.54-29.09 19.79-42.43 31.25-7.26 6.98-15.13 14.28-18.2 24.19-1.01 9.67.07 19.48-.56 29.2 24.07-4.32 48.28-7.94 72.42-11.85.01-8.43.03-16.87-.02-25.29.06-2.89-.19-6.15 1.84-8.48 1.6-2.38 4.36-3.44 6.87-4.55 31.89-14.18 57.09-42.42 67.51-75.73 8.93-27.55 6.97-58.19-4.18-84.82-9.48-21.75-25.48-40.45-45.04-53.78-12.09-7.28-24.87-13.94-38.81-16.79-25.61-5.98-53.37-4.25-77.37 6.87-30.3 12.84-54.37 38.84-65.85 69.56-12.86 34.27-9.36 74.41 9.9 105.63 2.49 4.35 6.32 8.84 5 14.23-.89 6.27-7.25 11.09-13.54 9.9-5.71-.86-8.9-6.37-11.53-10.95-11.63-18.92-18.32-40.57-20.8-62.56-2.87-32.83 5.22-66.71 23.65-94.13zm94.12 87.03c-17 13.75-27.8 34.39-30.82 55.93-2.33 17.33 1.76 35.11 10.66 50.08 16.28-24.31 41.85-39.71 65.5-55.89 8.08-6.43 15.67-14.18 19.52-23.95 5.94-14.37 7.53-30.42 4.88-45.73-24.65-4.47-51.03 2.94-69.74 19.56zM334.77 436.15c4.46-.35 9.54-2.69 13.65.08 3.62 3.7 1.98 9.37 2.31 14 .34 3.69-1.73 7.78-5.74 8.19-35.84 5.47-71.72 10.8-107.6 16.12-3.15.89-6.91-1.22-7.33-4.54-.51-4.32-.32-8.71-.2-13.05-.17-3 2.48-5.43 5.36-5.63 33.16-5.14 66.38-10.08 99.55-15.16z"/></g></svg>