<svg id="Layer_1" data-name="Layer 1" xmlns="http://www.w3.org/2000/svg" viewBox="0 0 576 576"><defs><style>.cls-1{fill:#0086f1;}</style></defs><path class="cls-1" d="M78.57,58.54c9.79-6.1,21.75-6.3,32.92-5.86a10.45,10.45,0,0,1,9.78,6.55,59.88,59.88,0,0,1,.17,15.54c-.37,3.53-3.87,6.1-7.29,6.17-6.17.66-13.61-1.3-18.43,3.72-3.78,2.76-5.11,7.4-5,11.89-.1,36.25,0,72.5,0,108.75a246.6,246.6,0,0,1-7.78,50.46c-3.69,11.94-9.26,23.64-18.27,32.5,4.71,4,9.18,8.51,11.85,14.16,9.57,18.7,13.07,39.91,14.17,60.69-.13,37.51-.41,75-.59,112.52a17.19,17.19,0,0,0,7.56,15.13c5.79,3.47,12.66,1.88,19,2.18,3.16-.22,5.16,3.05,5.06,5.88,0,6.15.36,12.33-.27,18.45-.47,4-4.78,6.51-8.58,6.16-11.83-.19-24.54-1.22-34.29-8.67-11.9-8.05-18.83-22.26-18.88-36.51-.68-42.65-1-85.32-1.72-128-1.36-14.87-7-29.68-17.16-40.81a19.89,19.89,0,0,0-12.19-6.06c0-11,0-21.91,0-32.86a20.21,20.21,0,0,0,13.07-7,68.24,68.24,0,0,0,16.67-42.74c.08-42.27-.07-84.53.07-126.8C58.13,79.71,66.39,65.78,78.57,58.54Z"/><path class="cls-1" d="M454.28,72.15c-.25-6.71-1.38-16.17,6.51-19,11.37-1,23.61-1.3,34.07,4,14.2,6.69,23.3,22.48,22.76,38.06q.06,55.69,0,111.4c.05,9.46-.57,19.08,1.89,28.33,3.11,11.61,8.66,22.83,17.45,31.2,2.81,2.73,6.71,3.61,10.41,4.43V303c-10.66,1.88-17,11.53-21.71,20.35-4.48,9.56-7.82,19.95-7.77,30.61q-.72,60.21-1.49,120.43c0,8.15-1,16.5-4.76,23.83-4.24,9.11-12.06,16.23-21,20.62-9.36,4.3-19.93,4.58-30,4.26-3.62-.12-6.38-3.73-6.28-7.23-.16-6.39-.45-12.84.19-19.2,2-5.78,9.35-3.23,13.94-3.75,9.05,1.2,17.58-7.08,17.39-16-.06-37.92-.45-75.84-.56-113.74,1.13-21.45,4.76-43.41,15.14-62.46,2.56-5,6.65-9,10.85-12.62-9.47-9-15-21.24-18.61-33.58a250.12,250.12,0,0,1-7.36-47.82c-.16-36.71,0-73.43-.09-110.13.06-4.45-1.19-9.11-4.88-11.89-5.65-5.54-14.1-2.29-21-4.1C455.89,79.4,454,75.72,454.28,72.15Z"/><path class="cls-1" d="M149.35,154C175.67,113.93,220,85.6,267.86,80.46,310,74.68,353.94,87,387.79,112.51c33.27,25.25,57,63.1,64,104.41,3.83,24.45,3.37,49.86-3.89,73.65-12.12,45.21-44.78,84.07-86.77,104.56,0,11.75,0,23.51,0,35.27-.06,2.81,0,6.05-2.14,8.23-1.79,1.92-4.67,1.79-7,2.36-40.73,6.46-81.35,13.55-122.1,19.76-2.37-1.84-5.33-3.86-5.15-7.23-.21-15.37,0-30.74-.07-46.11-19.27-23.6-31.21-53.7-30.33-84.42.54-33.19,16.13-65.24,40.42-87.59,25.32-23.59,60.81-36.54,95.4-32.8,9.9.48,19.29,3.67,28.85,6,3.78,16.72,6.56,34,4.62,51.12a107,107,0,0,1-9.22,34.53c-6.83,16.14-19.06,29.44-33.21,39.53a440,440,0,0,0-48.23,35.53c-8.26,7.93-17.2,16.24-20.69,27.49-1.15,11,.08,22.15-.63,33.2,27.36-4.92,54.88-9,82.32-13.47,0-9.59,0-19.17,0-28.75.07-3.28-.22-7,2.1-9.63,1.82-2.71,4.95-3.91,7.81-5.18a141.77,141.77,0,0,0,76.74-86.08c10.16-31.32,7.92-66.15-4.74-96.42-10.78-24.73-29-46-51.2-61.13-13.74-8.28-28.26-15.85-44.11-19.08-29.11-6.8-60.66-4.83-88,7.81-34.44,14.59-61.8,44.15-74.85,79.07-14.62,39-10.64,84.59,11.25,120.07,2.83,4.94,7.18,10.05,5.68,16.17-1,7.13-8.24,12.6-15.39,11.26-6.5-1-10.12-7.25-13.11-12.45C132.9,310.65,125.29,286,122.47,261,119.21,223.71,128.41,185.21,149.35,154Zm107,98.93c-19.33,15.63-31.61,39.1-35,63.58-2.65,19.7,2,39.91,12.12,56.92,18.5-27.63,47.57-45.14,74.46-63.53,9.18-7.31,17.81-16.12,22.18-27.22a94.44,94.44,0,0,0,5.55-52A95.32,95.32,0,0,0,256.35,253Z"/><path class="cls-1" d="M343.62,454.55c5.07-.4,10.84-3.05,15.51.09,4.12,4.21,2.25,10.65,2.63,15.92.39,4.19-2,8.84-6.52,9.31q-61.11,9.33-122.31,18.32c-3.58,1-7.85-1.38-8.33-5.16a102.09,102.09,0,0,1-.24-14.84c-.19-3.42,2.82-6.17,6.1-6.41C268.16,465.94,305.91,460.32,343.62,454.55Z"/></svg>