<?xml version="1.0" encoding="UTF-8"?>
<svg id="Layer_1" data-name="Layer 1" xmlns="http://www.w3.org/2000/svg" viewBox="0 0 576 576">
  <defs>
    <style>
      .cls-1 {
        fill: #0086f1;
      }
    </style>
  </defs>
  <g>
    <path class="cls-1" d="M55.58,33.35c10.85-6.78,24.14-6.99,36.53-6.5,4.64-.01,9.26,2.84,10.85,7.27,.89,5.69,.8,11.53,.19,17.24-.4,3.92-4.29,6.78-8.08,6.85-6.85,.73-15.1-1.44-20.46,4.14-4.19,3.06-5.67,8.21-5.51,13.19-.11,40.23,.01,80.46-.06,120.69-1.05,18.88-3.7,37.72-8.63,56-4.09,13.25-10.28,26.23-20.27,36.07,5.23,4.45,10.18,9.45,13.15,15.72,10.61,20.75,14.5,44.29,15.72,67.35-.14,41.62-.46,83.25-.66,124.87-.42,6.58,2.93,13.18,8.4,16.8,6.42,3.85,14.04,2.08,21.09,2.41,3.5-.24,5.73,3.39,5.61,6.53,.04,6.82,.4,13.68-.3,20.47-.52,4.45-5.3,7.22-9.52,6.83-13.12-.22-27.24-1.35-38.05-9.62-13.21-8.93-20.91-24.71-20.96-40.52-.75-47.34-1.11-94.69-1.91-142.03-1.51-16.5-7.78-32.94-19.04-45.29-3.49-3.86-8.43-6.03-13.53-6.73-.04-12.16,0-24.31-.01-36.47,5.59-.82,10.93-3.32,14.5-7.8,11.41-12.94,18.03-30.21,18.51-47.44,.09-46.91-.09-93.82,.07-140.72-.32-15.84,8.84-31.3,22.37-39.33Z"/>
    <path class="cls-1" d="M472.55,48.45c-.29-7.45-1.54-17.95,7.22-21.06,12.62-1.06,26.2-1.44,37.8,4.47,15.77,7.42,25.86,24.95,25.27,42.24,.04,41.21,0,82.43,.01,123.64,.06,10.5-.63,21.18,2.1,31.44,3.46,12.88,9.62,25.33,19.37,34.62,3.12,3.03,7.45,4.01,11.56,4.92v35.91c-11.83,2.08-18.87,12.79-24.09,22.59-4.98,10.61-8.69,22.14-8.63,33.97-.53,44.55-1.13,89.11-1.65,133.66,.04,9.05-1.09,18.31-5.28,26.45-4.71,10.11-13.38,18-23.29,22.89-10.38,4.77-22.11,5.08-33.32,4.72-4.02-.13-7.08-4.14-6.96-8.03-.19-7.09-.5-14.24,.2-21.31,2.23-6.42,10.38-3.59,15.48-4.16,10.04,1.34,19.51-7.85,19.3-17.78-.07-42.08-.5-84.17-.62-126.24,1.25-23.81,5.28-48.17,16.8-69.32,2.84-5.57,7.38-9.96,12.05-14-10.51-9.96-16.66-23.58-20.66-37.27-4.57-17.34-7.02-35.19-8.17-53.07-.17-40.75,.04-81.5-.1-122.23,.07-4.94-1.32-10.11-5.41-13.19-6.27-6.15-15.65-2.54-23.26-4.55-3.92-1.26-5.97-5.34-5.7-9.3Z"/>
  </g>
  <g>
    <path class="cls-1" d="M134.13,139.32c29.2-44.51,78.37-75.95,131.52-81.65,46.76-6.42,95.54,7.21,133.1,35.56,36.93,28.03,63.26,70.04,71,115.88,4.25,27.14,3.73,55.34-4.32,81.74-13.45,50.17-49.69,93.3-96.3,116.04,0,13.04-.01,26.09,.03,39.14-.07,3.12-.04,6.72-2.38,9.13-1.98,2.14-5.18,2-7.81,2.63-45.2,7.16-90.28,15.03-135.51,21.92-2.63-2.04-5.92-4.28-5.71-8.03-.23-17.06-.04-34.11-.07-51.17-21.39-26.19-34.65-59.6-33.67-93.69,.6-36.84,17.9-72.41,44.87-97.22,28.1-26.17,67.48-40.55,105.88-36.4,10.98,.53,21.41,4.08,32.02,6.62,4.19,18.55,7.28,37.69,5.13,56.73-1.08,13.25-4.85,26.19-10.24,38.32-7.58,17.92-21.15,32.68-36.86,43.88-18.64,12.03-36.7,24.97-53.53,39.43-9.16,8.8-19.08,18.02-22.96,30.51-1.28,12.2,.09,24.58-.7,36.84,30.37-5.46,60.91-10.02,91.36-14.95,.01-10.64,.04-21.28-.03-31.9,.07-3.65-.24-7.75,2.33-10.7,2.02-3,5.5-4.34,8.67-5.74,40.23-17.89,72.02-53.51,85.17-95.54,11.27-34.76,8.79-73.41-5.27-107.01-11.96-27.44-32.15-51.03-56.81-67.84-15.25-9.19-31.37-17.59-48.96-21.18-32.31-7.54-67.32-5.36-97.61,8.67-38.22,16.2-68.59,49-83.08,87.76-16.22,43.23-11.8,93.87,12.49,133.26,3.14,5.48,7.97,11.16,6.3,17.95-1.12,7.91-9.15,13.98-17.09,12.49-7.21-1.09-11.23-8.04-14.54-13.81-14.67-23.86-23.12-51.19-26.25-78.93-3.62-41.42,6.59-84.15,29.84-118.75Zm118.74,109.8c-21.45,17.34-35.08,43.39-38.88,70.56-2.94,21.87,2.23,44.29,13.45,63.18,20.53-30.67,52.79-50.09,82.63-70.51,10.19-8.11,19.77-17.89,24.62-30.21,7.49-18.13,9.5-38.38,6.16-57.69-31.1-5.64-64.38,3.7-87.99,24.68Z"/>
    <path class="cls-1" d="M349.73,472.84c5.63-.45,12.03-3.39,17.22,.1,4.57,4.67,2.5,11.82,2.91,17.66,.43,4.65-2.18,9.82-7.24,10.34-45.21,6.91-90.48,13.63-135.74,20.33-3.98,1.12-8.72-1.54-9.25-5.73-.65-5.46-.4-10.98-.26-16.47-.22-3.79,3.13-6.85,6.76-7.11,41.84-6.49,83.74-12.72,125.59-19.12Z"/>
  </g>
</svg>