<?xml version="1.0" encoding="utf-8"?>
<!-- Generator: Adobe Illustrator 26.2.1, SVG Export Plug-In . SVG Version: 6.00 Build 0)  -->
<svg version="1.1" id="图层_1" xmlns="http://www.w3.org/2000/svg" xmlns:xlink="http://www.w3.org/1999/xlink" x="0px" y="0px"
	 viewBox="0 0 50.8 20.6" style="enable-background:new 0 0 50.8 20.6;" xml:space="preserve">
<style type="text/css">
	.st0{fill:#07C160;}
	.st1{font-family:'ArialMT';}
	.st2{font-size:14px;}
</style>
<g id="ipv6-certified-lite-s1">
	<g id="编组-2备份" transform="translate(18.000000, 8.000000)">
		<text transform="matrix(1 0 0 1 3.2229 6.9427)" class="st0 st1 st2">IPv6</text>
		<g id="编组备份" transform="translate(0.000000, 1.000000)">
			<path id="形状" class="st0" d="M-2.9-1.7L-2.5-3c0.1-0.2,0-0.5-0.2-0.7l-1-1L-4-6c-0.1-0.3-0.3-0.5-0.5-0.5l-1.3-0.3l-1-1
				C-6.9-8-7.1-8.1-7.3-8.1c-0.1,0-0.1,0-0.2,0l-1.3,0.4l-1.4-0.4c-0.1,0-0.1,0-0.2,0c-0.2,0-0.4,0.1-0.5,0.2l-1,1l-1.3,0.3
				c-0.3,0.1-0.5,0.3-0.5,0.5L-14-4.7l-1,1c-0.2,0.2-0.3,0.4-0.2,0.7l0.4,1.3l-0.4,1.3c-0.1,0.2,0,0.5,0.2,0.7l1,1l0.3,1.3
				c0.1,0.3,0.3,0.5,0.5,0.5l1.3,0.3l1,1c0.1,0.1,0.3,0.2,0.5,0.2c0.1,0,0.1,0,0.2,0l1.3-0.4l1.3,0.4c0.1,0,0.1,0,0.2,0
				c0.2,0,0.4-0.1,0.5-0.2l1-1l1.3-0.3C-4.3,3-4.1,2.8-4.1,2.6l0.3-1.3l1-1c0.3-0.2,0.4-0.4,0.3-0.7L-2.9-1.7z M-8.8-5.1
				c1.9,0,3.5,1.5,3.5,3.5c0,1.9-1.5,3.5-3.5,3.5c-1.9,0-3.5-1.5-3.5-3.5S-10.8-5.1-8.8-5.1z M-14.1,4.3l-1.6,3.9
				c0,0-0.5,0.9,0.6,0.8c1-0.1,1.9,0,1.9,0l1.3,1.3c0,0,0.5,0.7,0.9,0s1.9-4.6,1.9-4.6s-1.8,0.8-3-0.3C-13.3,4.1-14.1,4.3-14.1,4.3
				L-14.1,4.3z M-3.5,4.3l1.6,3.9c0,0,0.5,0.9-0.6,0.8c-1-0.1-1.9,0-1.9,0l-1.3,1.3c0,0-0.5,0.7-0.9,0s-1.9-4.6-1.9-4.6
				s1.8,0.8,3-0.3C-4.2,4.1-3.5,4.3-3.5,4.3L-3.5,4.3z"/>
		</g>
	</g>
</g>
</svg>
