<svg id="Layer_1" data-name="Layer 1" xmlns="http://www.w3.org/2000/svg" viewBox="0 0 616 559"><defs><style>.cls-1{fill:#b4d73d;}.cls-2{fill:#7bc920;}</style></defs><path class="cls-1" d="M127.14,63.17c8.88-5.55,19.75-5.72,29.89-5.32a9.47,9.47,0,0,1,8.88,5.94,53.75,53.75,0,0,1,.15,14.11c-.33,3.21-3.51,5.55-6.61,5.61-5.6.59-12.36-1.18-16.74,3.38-3.43,2.5-4.64,6.72-4.51,10.8-.1,32.91,0,65.83,0,98.75a224,224,0,0,1-7.06,45.82c-3.35,10.84-8.41,21.46-16.59,29.51,4.28,3.64,8.33,7.73,10.76,12.87,8.68,17,11.87,36.24,12.87,55.11-.12,34.06-.38,68.11-.54,102.17a15.61,15.61,0,0,0,6.87,13.75c5.25,3.15,11.49,1.7,17.26,2,2.86-.2,4.68,2.77,4.59,5.35,0,5.58.33,11.19-.25,16.75-.42,3.64-4.33,5.91-7.79,5.59-10.73-.17-22.28-1.1-31.13-7.87-10.81-7.31-17.1-20.22-17.15-33.15-.61-38.74-.91-77.48-1.56-116.22-1.24-13.5-6.37-26.95-15.58-37a18.11,18.11,0,0,0-11.07-5.51c0-9.95,0-19.89,0-29.84a18.39,18.39,0,0,0,11.87-6.38,62,62,0,0,0,15.14-38.82c.07-38.38-.07-76.76.06-115.14C108.58,82.39,116.07,69.74,127.14,63.17Z"/><path class="cls-1" d="M468.32,75.53c-.23-6.1-1.25-14.69,5.91-17.24,10.33-.87,21.44-1.17,30.94,3.66,12.9,6.07,21.15,20.42,20.67,34.56q.06,50.58,0,101.17c0,8.58-.51,17.32,1.72,25.72,2.83,10.54,7.87,20.73,15.85,28.33,2.55,2.48,6.1,3.28,9.46,4v29.38c-9.68,1.71-15.44,10.47-19.72,18.48-4.07,8.68-7.11,18.12-7.06,27.8q-.65,54.68-1.35,109.36c0,7.4-.89,15-4.32,21.64-3.86,8.27-10.95,14.74-19.06,18.73-8.49,3.9-18.09,4.16-27.27,3.87-3.29-.11-5.79-3.39-5.69-6.57a137.11,137.11,0,0,1,.16-17.44c1.82-5.25,8.49-2.93,12.66-3.4,8.22,1.09,16-6.43,15.79-14.55,0-34.43-.41-68.87-.5-103.29,1-19.48,4.32-39.41,13.74-56.72,2.33-4.56,6-8.15,9.86-11.45-8.6-8.16-13.63-19.29-16.9-30.5a227.64,227.64,0,0,1-6.69-43.42c-.14-33.35,0-66.69-.08-100,.06-4-1.08-8.27-4.43-10.79-5.13-5-12.81-2.08-19-3.73C469.78,82.11,468.1,78.77,468.32,75.53Z"/><path class="cls-2" d="M191.42,149.88C215.31,113.46,255.54,87.74,299,83.07c38.26-5.25,78.17,5.9,108.91,29.1C438.15,135.1,459.7,169.48,466,207c3.48,22.21,3.06,45.28-3.53,66.88-11,41.05-40.66,76.35-78.8,94.95q0,16,0,32c-.05,2.55,0,5.5-2,7.47-1.62,1.75-4.24,1.64-6.39,2.15-37,5.86-73.87,12.3-110.88,17.94-2.15-1.67-4.84-3.5-4.67-6.57-.19-13.95,0-27.91-.06-41.87-17.51-21.43-28.35-48.76-27.55-76.65.49-30.15,14.65-59.25,36.71-79.55,23-21.42,55.22-33.18,86.63-29.78,9,.43,17.52,3.33,26.2,5.41,3.43,15.18,6,30.84,4.2,46.42a97,97,0,0,1-8.38,31.36c-6.2,14.66-17.31,26.74-30.16,35.9a398.2,398.2,0,0,0-43.8,32.26c-7.49,7.2-15.61,14.74-18.78,25-1,10,.07,20.12-.58,30.15,24.85-4.46,49.84-8.2,74.76-12.23,0-8.7,0-17.41,0-26.1.06-3-.2-6.35,1.91-8.76,1.65-2.45,4.5-3.54,7.09-4.7a128.7,128.7,0,0,0,69.69-78.17c9.23-28.44,7.19-60.07-4.31-87.56a131.42,131.42,0,0,0-46.49-55.51c-12.47-7.52-25.67-14.39-40.06-17.33-26.43-6.17-55.09-4.38-79.86,7.1-31.28,13.25-56.12,40.09-68,71.8-13.27,35.38-9.65,76.81,10.22,109,2.58,4.49,6.52,9.13,5.16,14.68-.92,6.48-7.48,11.45-14,10.23-5.9-.9-9.19-6.58-11.9-11.31-12-19.52-18.92-41.88-21.48-64.58C164,213.16,172.4,178.2,191.42,149.88Zm97.15,89.84c-17.55,14.19-28.7,35.51-31.81,57.73-2.41,17.9,1.82,36.25,11,51.7,16.8-25.1,43.2-41,67.61-57.7,8.34-6.64,16.18-14.64,20.15-24.72a85.86,85.86,0,0,0,5-47.2A86.62,86.62,0,0,0,288.57,239.72Z"/><path class="cls-2" d="M367.83,422.78c4.6-.36,9.84-2.77,14.08.09,3.74,3.81,2,9.67,2.39,14.45.35,3.8-1.79,8-5.92,8.46q-55.5,8.48-111.07,16.63c-3.25.92-7.13-1.26-7.57-4.69a96.08,96.08,0,0,1-.21-13.47c-.17-3.1,2.56-5.61,5.54-5.82C299.3,433.12,333.58,428,367.83,422.78Z"/></svg>